<svg width="1905" height="556" viewBox="0 0 1905 556" fill="none" xmlns="http://www.w3.org/2000/svg">
<path d="M135.412 554.974L0 188.546H94.544L171.278 431.446L207.8 554.974H171.887H135.412Z" fill="url(#paint0_linear)"/>
<path d="M207.8 554.973L332.374 188.545M132.703 547.814L171.13 430.283L250.447 188.545H332.374L296.509 294.04L207.8 554.973H169.081H142.32C138.163 554.973 134.439 552.401 132.967 548.513L132.703 547.814Z" fill="url(#paint1_linear)"/>
<path d="M207.8 554.973L332.374 188.545M132.703 547.814L171.13 430.283L250.447 188.545H332.374L296.509 294.04L207.8 554.973H169.081H142.32C138.163 554.973 134.439 552.401 132.967 548.513L132.703 547.814Z" stroke="black"/>
<path d="M297.138 293.9L261.109 188.545H343.561L423.03 430.703L461.249 546.556L458.115 554.973H422.157H386.074L297.138 293.9Z" fill="url(#paint2_linear)"/>
<path d="M384.561 550.484L422.664 430.88L558.066 0H663L458.071 555.104H386.124L384.561 550.484Z" fill="url(#paint3_linear)"/>
<path d="M967.85 123.547H1035.08V555H967.85V123.547Z" fill="#545454"/>
<path d="M1378.27 510.622C1351.13 538.975 1314.33 553.151 1267.86 553.151C1221.4 553.151 1184.39 538.975 1156.84 510.622C1129.7 481.859 1116.13 445.699 1116.13 402.143C1116.13 358.587 1129.7 322.632 1156.84 294.28C1184.39 265.516 1221.4 251.134 1267.86 251.134C1314.33 251.134 1351.13 265.516 1378.27 294.28C1405.82 322.632 1419.6 358.587 1419.6 402.143C1419.6 445.699 1405.82 481.859 1378.27 510.622ZM1205.57 468.093C1220.78 484.941 1241.55 493.364 1267.86 493.364C1294.18 493.364 1314.74 484.941 1329.54 468.093C1344.76 451.246 1352.37 429.263 1352.37 402.143C1352.37 375.023 1344.76 353.039 1329.54 336.192C1314.74 319.345 1294.18 310.921 1267.86 310.921C1241.55 310.921 1220.78 319.345 1205.57 336.192C1190.77 353.039 1183.36 375.023 1183.36 402.143C1183.36 429.263 1190.77 451.246 1205.57 468.093Z" fill="#545454"/>
<path d="M1546.03 553.151L1439.94 265.927H1513.95L1573.78 455.766L1636.08 265.927H1708.86L1771.16 455.766L1830.99 265.927H1905L1798.91 553.151H1742.17L1672.47 348.519L1602.77 553.151H1546.03Z" fill="#545454"/>
<path d="M772.081 169.158C765.09 183.951 761.595 202.236 761.595 224.014V265.927H703V322.015H761.595V553.151H828.826V322.015H904.074V265.927H828.826V222.781C828.826 212.92 830.265 204.701 833.143 198.127C836.021 191.552 840.133 187.032 845.479 184.567C851.236 181.691 856.376 179.842 860.899 179.02C865.833 178.198 871.384 177.787 877.552 177.787C881.253 177.787 885.982 178.198 891.738 179.02C897.906 179.842 902.018 180.252 904.074 180.252V123.547C892.972 119.849 877.963 118 859.048 118C849.591 118 840.133 119.438 830.676 122.315C821.218 124.78 810.733 129.505 799.22 136.491C788.117 143.065 779.071 153.954 772.081 169.158Z" fill="#545454"/>
<defs>
<linearGradient id="paint0_linear" x1="42.823" y1="188.545" x2="173.009" y2="555.534" gradientUnits="userSpaceOnUse">
<stop stop-color="#4B1481"/>
<stop offset="0.5" stop-color="#B50953"/>
<stop offset="0.90625" stop-color="#EA3652"/>
</linearGradient>
<linearGradient id="paint1_linear" x1="168.52" y1="554.412" x2="292.533" y2="188.545" gradientUnits="userSpaceOnUse">
<stop stop-color="#EB3651"/>
<stop offset="0.494792" stop-color="#FFCB00"/>
<stop offset="1" stop-color="#ECFE11"/>
</linearGradient>
<linearGradient id="paint2_linear" x1="424.402" y1="558.901" x2="303.756" y2="188.545" gradientUnits="userSpaceOnUse">
<stop stop-color="#4D1581"/>
<stop offset="0.354167" stop-color="#A4DF3F"/>
<stop offset="0.661458" stop-color="#76E410"/>
<stop offset="1" stop-color="#00D69F"/>
</linearGradient>
<linearGradient id="paint3_linear" x1="426.086" y1="555.534" x2="612.947" y2="-1.4388e-06" gradientUnits="userSpaceOnUse">
<stop stop-color="#01D5A0"/>
<stop offset="1" stop-color="#494AC6"/>
</linearGradient>
</defs>
</svg>
