<svg width="97" height="96" viewBox="0 0 97 96" fill="none" xmlns="http://www.w3.org/2000/svg">
<path d="M16.7321 46.7227L16.9821 46.2897L16.9821 46.2897L16.7321 46.7227ZM16 43.9907L15.567 43.7407L15.567 43.7407L16 43.9907ZM22.5 32.7323L22.933 32.9823L22.933 32.9823L22.5 32.7323ZM25.232 32.0003L24.982 32.4333L24.9821 32.4333L25.232 32.0003ZM26.0981 32.5003L26.3481 32.0673L26.3481 32.0673L26.0981 32.5003ZM26.8301 35.2323L27.2631 35.4823L26.8301 35.2323ZM20.3301 46.4907L20.7631 46.7407L20.3301 46.4907ZM17.5981 47.2227L17.3481 47.6557L17.3481 47.6557L17.5981 47.2227ZM26.098 27.7227L26.348 28.1557L26.348 28.1557L26.098 27.7227ZM26.8301 24.9907L26.3971 25.2407L26.3971 25.2407L26.8301 24.9907ZM20.3301 13.7323L20.7631 13.4823L20.7631 13.4823L20.3301 13.7323ZM17.598 13.0003L17.348 12.5673L17.348 12.5673L17.598 13.0003ZM16.732 13.5003L16.982 13.9333L16.982 13.9333L16.732 13.5003ZM16 16.2323L16.433 15.9823L16.433 15.9823L16 16.2323ZM22.5 27.4907L22.0669 27.7407L22.0669 27.7407L22.5 27.4907ZM25.232 28.2227L24.982 27.7897L24.982 27.7897L25.232 28.2227ZM40 52.5001C40 52.7762 40.2239 53.0001 40.5 53.0001C40.7761 53.0001 41 52.7762 41 52.5001H40ZM41 50.5001C41 50.2239 40.7761 50.0001 40.5 50.0001C40.2239 50.0001 40 50.2239 40 50.5001H41ZM40 64.5001C40 64.7762 40.2239 65.0001 40.5 65.0001C40.7761 65.0001 41 64.7762 41 64.5001H40ZM41 62.5001C41 62.2239 40.7761 62.0001 40.5 62.0001C40.2239 62.0001 40 62.2239 40 62.5001H41ZM43.6819 53.611C43.4867 53.8063 43.4867 54.1229 43.6819 54.3181C43.8772 54.5134 44.1938 54.5134 44.389 54.3181L43.6819 53.611ZM45.8033 52.9039C45.9985 52.7086 45.9985 52.3921 45.8033 52.1968C45.608 52.0015 45.2914 52.0015 45.0962 52.1968L45.8033 52.9039ZM35.1967 62.0963C35.0014 62.2916 35.0014 62.6081 35.1967 62.8034C35.3919 62.9987 35.7085 62.9987 35.9038 62.8034L35.1967 62.0963ZM37.318 61.3892C37.5132 61.1939 37.5132 60.8773 37.318 60.6821C37.1227 60.4868 36.8061 60.4868 36.6109 60.6821L37.318 61.3892ZM45.5 57.0001C45.2239 57.0001 45 57.2239 45 57.5001C45 57.7762 45.2239 58.0001 45.5 58.0001V57.0001ZM47.5 58.0001C47.7761 58.0001 48 57.7762 48 57.5001C48 57.2239 47.7761 57.0001 47.5 57.0001V58.0001ZM33.5 57.0001C33.2239 57.0001 33 57.2239 33 57.5001C33 57.7762 33.2239 58.0001 33.5 58.0001V57.0001ZM35.5 58.0001C35.7761 58.0001 36 57.7762 36 57.5001C36 57.2239 35.7761 57.0001 35.5 57.0001V58.0001ZM44.389 60.682C44.1938 60.4867 43.8772 60.4867 43.6819 60.682C43.4867 60.8773 43.4867 61.1938 43.6819 61.3891L44.389 60.682ZM45.0962 62.8033C45.2914 62.9986 45.608 62.9986 45.8033 62.8033C45.9985 62.6081 45.9985 62.2915 45.8033 62.0962L45.0962 62.8033ZM35.9038 52.1967C35.7085 52.0015 35.3919 52.0015 35.1967 52.1967C35.0014 52.392 35.0014 52.7086 35.1967 52.9038L35.9038 52.1967ZM36.6109 54.318C36.8061 54.5133 37.1227 54.5133 37.318 54.318C37.5132 54.1228 37.5132 53.8062 37.318 53.6109L36.6109 54.318ZM29.5 29.5001C29.5 28.6716 30.1716 28.0001 31 28.0001V27.0001C29.6193 27.0001 28.5 28.1193 28.5 29.5001H29.5ZM31 28.0001H44V27.0001H31V28.0001ZM44 28.0001C44.8284 28.0001 45.5 28.6716 45.5 29.5001H46.5C46.5 28.1193 45.3807 27.0001 44 27.0001V28.0001ZM45.5 29.5001V30.5001H46.5V29.5001H45.5ZM45.5 30.5001C45.5 31.3285 44.8284 32.0001 44 32.0001V33.0001C45.3807 33.0001 46.5 31.8808 46.5 30.5001H45.5ZM44 32.0001H31V33.0001H44V32.0001ZM31 32.0001C30.1716 32.0001 29.5 31.3285 29.5 30.5001H28.5C28.5 31.8808 29.6193 33.0001 31 33.0001V32.0001ZM29.5 30.5001V29.5001H28.5V30.5001H29.5ZM16.9821 46.2897C16.2646 45.8755 16.0188 44.9581 16.433 44.2407L15.567 43.7407C14.8766 44.9364 15.2863 46.4654 16.4821 47.1557L16.9821 46.2897ZM16.433 44.2407L22.933 32.9823L22.067 32.4823L15.567 43.7407L16.433 44.2407ZM22.933 32.9823C23.3472 32.2649 24.2646 32.0191 24.982 32.4333L25.482 31.5673C24.2863 30.8769 22.7573 31.2866 22.067 32.4823L22.933 32.9823ZM24.9821 32.4333L25.8481 32.9333L26.3481 32.0673L25.482 31.5673L24.9821 32.4333ZM25.8481 32.9333C26.5655 33.3475 26.8113 34.2649 26.3971 34.9823L27.2631 35.4823C27.9535 34.2866 27.5438 32.7576 26.3481 32.0673L25.8481 32.9333ZM26.3971 34.9823L19.8971 46.2407L20.7631 46.7407L27.2631 35.4823L26.3971 34.9823ZM19.8971 46.2407C19.4829 46.9581 18.5655 47.2039 17.8481 46.7897L17.3481 47.6557C18.5438 48.3461 20.0728 47.9364 20.7631 46.7407L19.8971 46.2407ZM17.8481 46.7897L16.9821 46.2897L16.4821 47.1557L17.3481 47.6557L17.8481 46.7897ZM26.348 28.1557C27.5438 27.4654 27.9534 25.9364 27.2631 24.7407L26.3971 25.2407C26.8113 25.9581 26.5655 26.8755 25.848 27.2897L26.348 28.1557ZM27.2631 24.7407L20.7631 13.4823L19.8971 13.9823L26.3971 25.2407L27.2631 24.7407ZM20.7631 13.4823C20.0727 12.2866 18.5438 11.8769 17.348 12.5673L17.848 13.4333C18.5655 13.0191 19.4829 13.2649 19.8971 13.9823L20.7631 13.4823ZM17.348 12.5673L16.482 13.0673L16.982 13.9333L17.848 13.4333L17.348 12.5673ZM16.482 13.0673C15.2863 13.7576 14.8766 15.2866 15.5669 16.4823L16.433 15.9823C16.0187 15.2649 16.2646 14.3475 16.982 13.9333L16.482 13.0673ZM15.5669 16.4823L22.0669 27.7407L22.933 27.2407L16.433 15.9823L15.5669 16.4823ZM22.0669 27.7407C22.7573 28.9364 24.2863 29.3461 25.482 28.6557L24.982 27.7897C24.2646 28.2039 23.3472 27.9581 22.933 27.2407L22.0669 27.7407ZM25.482 28.6557L26.348 28.1557L25.848 27.2897L24.982 27.7897L25.482 28.6557ZM5 80V84.7501H6V80H5ZM8.5 84.7501V80H7.5V84.7501H8.5ZM6.75 86.5001C7.7165 86.5001 8.5 85.7166 8.5 84.7501H7.5C7.5 85.1643 7.16421 85.5001 6.75 85.5001V86.5001ZM5 84.7501C5 85.7166 5.7835 86.5001 6.75 86.5001V85.5001C6.33579 85.5001 6 85.1643 6 84.7501H5ZM70.5 80V84.7501H71.5V80H70.5ZM74 84.7501V80H73V84.7501H74ZM72.25 86.5001C73.2165 86.5001 74 85.7166 74 84.7501H73C73 85.1643 72.6642 85.5001 72.25 85.5001V86.5001ZM70.5 84.7501C70.5 85.7166 71.2835 86.5001 72.25 86.5001V85.5001C71.8358 85.5001 71.5 85.1643 71.5 84.7501H70.5ZM4.95 1.5H76.05V0.5H4.95V1.5ZM79.5 4.95V76.05H80.5V4.95H79.5ZM76.05 79.5H4.95V80.5H76.05V79.5ZM1.5 76.05V4.95H0.5V76.05H1.5ZM4.95 79.5C3.04462 79.5 1.5 77.9554 1.5 76.05H0.5C0.5 78.5077 2.49233 80.5 4.95 80.5V79.5ZM79.5 76.05C79.5 77.9554 77.9554 79.5 76.05 79.5V80.5C78.5077 80.5 80.5 78.5077 80.5 76.05H79.5ZM76.05 1.5C77.9554 1.5 79.5 3.04462 79.5 4.95H80.5C80.5 2.49233 78.5077 0.5 76.05 0.5V1.5ZM4.95 0.5C2.49233 0.5 0.5 2.49233 0.5 4.95H1.5C1.5 3.04462 3.04462 1.5 4.95 1.5V0.5ZM7.9125 5.45H71.1125V4.45H7.9125V5.45ZM72.5875 6.925V74.075H73.5875V6.925H72.5875ZM71.1125 75.55H7.9125V76.55H71.1125V75.55ZM6.4375 74.075V6.925H5.4375V74.075H6.4375ZM7.9125 75.55C7.09788 75.55 6.4375 74.8896 6.4375 74.075H5.4375C5.4375 75.4419 6.5456 76.55 7.9125 76.55V75.55ZM72.5875 74.075C72.5875 74.8896 71.9271 75.55 71.1125 75.55V76.55C72.4794 76.55 73.5875 75.4419 73.5875 74.075H72.5875ZM71.1125 5.45C71.9271 5.45 72.5875 6.11038 72.5875 6.925H73.5875C73.5875 5.5581 72.4794 4.45 71.1125 4.45V5.45ZM7.9125 4.45C6.54559 4.45 5.4375 5.5581 5.4375 6.925H6.4375C6.4375 6.11038 7.09788 5.45 7.9125 5.45V4.45ZM39 92.5H94V91.5H39V92.5ZM94 94.5H39V95.5H94V94.5ZM39 94.5C38.5454 94.5 38.1532 94.3612 37.8858 94.1607C37.6186 93.9602 37.5 93.7215 37.5 93.5H36.5C36.5 94.1069 36.8291 94.6182 37.2858 94.9607C37.7423 95.303 38.35 95.5 39 95.5V94.5ZM95.5 93.5C95.5 93.7215 95.3814 93.9602 95.1142 94.1607C94.8468 94.3612 94.4546 94.5 94 94.5V95.5C94.65 95.5 95.2577 95.303 95.7142 94.9607C96.1709 94.6182 96.5 94.1069 96.5 93.5H95.5ZM94 92.5C94.4546 92.5 94.8468 92.6388 95.1142 92.8393C95.3814 93.0398 95.5 93.2785 95.5 93.5H96.5C96.5 92.8931 96.1709 92.3818 95.7142 92.0393C95.2577 91.697 94.65 91.5 94 91.5V92.5ZM39 91.5C38.35 91.5 37.7423 91.697 37.2858 92.0393C36.8291 92.3818 36.5 92.8931 36.5 93.5H37.5C37.5 93.2785 37.6186 93.0398 37.8858 92.8393C38.1532 92.6388 38.5454 92.5 39 92.5V91.5ZM39 89.5H94V88.5H39V89.5ZM39 91.5C38.5454 91.5 38.1532 91.3612 37.8858 91.1607C37.6186 90.9602 37.5 90.7215 37.5 90.5H36.5C36.5 91.1069 36.8291 91.6182 37.2858 91.9607C37.7423 92.303 38.35 92.5 39 92.5V91.5ZM95.5 90.5C95.5 90.7215 95.3814 90.9602 95.1142 91.1607C94.8468 91.3612 94.4546 91.5 94 91.5V92.5C94.65 92.5 95.2577 92.303 95.7142 91.9607C96.1709 91.6182 96.5 91.1069 96.5 90.5H95.5ZM94 89.5C94.4546 89.5 94.8468 89.6388 95.1142 89.8393C95.3814 90.0398 95.5 90.2785 95.5 90.5H96.5C96.5 89.8931 96.1709 89.3818 95.7142 89.0393C95.2577 88.697 94.65 88.5 94 88.5V89.5ZM39 88.5C38.35 88.5 37.7423 88.697 37.2858 89.0393C36.8291 89.3818 36.5 89.8931 36.5 90.5H37.5C37.5 90.2785 37.6186 90.0398 37.8858 89.8393C38.1532 89.6388 38.5454 89.5 39 89.5V88.5ZM39 86.5H94V85.5H39V86.5ZM39 88.5C38.5454 88.5 38.1532 88.3612 37.8858 88.1607C37.6186 87.9602 37.5 87.7215 37.5 87.5H36.5C36.5 88.1069 36.8291 88.6182 37.2858 88.9607C37.7423 89.303 38.35 89.5 39 89.5V88.5ZM95.5 87.5C95.5 87.7215 95.3814 87.9602 95.1142 88.1607C94.8468 88.3612 94.4546 88.5 94 88.5V89.5C94.65 89.5 95.2577 89.303 95.7142 88.9607C96.1709 88.6182 96.5 88.1069 96.5 87.5H95.5ZM94 86.5C94.4546 86.5 94.8468 86.6388 95.1142 86.8393C95.3814 87.0398 95.5 87.2785 95.5 87.5H96.5C96.5 86.8931 96.1709 86.3818 95.7142 86.0393C95.2577 85.697 94.65 85.5 94 85.5V86.5ZM39 85.5C38.35 85.5 37.7423 85.697 37.2858 86.0393C36.8291 86.3818 36.5 86.8931 36.5 87.5H37.5C37.5 87.2785 37.6186 87.0398 37.8858 86.8393C38.1532 86.6388 38.5454 86.5 39 86.5V85.5ZM39 83.5H94V82.5H39V83.5ZM39 85.5C38.5454 85.5 38.1532 85.3612 37.8858 85.1607C37.6186 84.9602 37.5 84.7215 37.5 84.5H36.5C36.5 85.1069 36.8291 85.6182 37.2858 85.9607C37.7423 86.303 38.35 86.5 39 86.5V85.5ZM95.5 84.5C95.5 84.7215 95.3814 84.9602 95.1142 85.1607C94.8468 85.3612 94.4546 85.5 94 85.5V86.5C94.65 86.5 95.2577 86.303 95.7142 85.9607C96.1709 85.6182 96.5 85.1069 96.5 84.5H95.5ZM94 83.5C94.4546 83.5 94.8468 83.6388 95.1142 83.8393C95.3814 84.0398 95.5 84.2785 95.5 84.5H96.5C96.5 83.8931 96.1709 83.3818 95.7142 83.0393C95.2577 82.697 94.65 82.5 94 82.5V83.5ZM39 82.5C38.35 82.5 37.7423 82.697 37.2858 83.0393C36.8291 83.3818 36.5 83.8931 36.5 84.5H37.5C37.5 84.2785 37.6186 84.0398 37.8858 83.8393C38.1532 83.6388 38.5454 83.5 39 83.5V82.5ZM41 52.5001V50.5001H40V52.5001H41ZM41 64.5001V62.5001H40V64.5001H41ZM44.389 54.3181L45.8033 52.9039L45.0962 52.1968L43.6819 53.611L44.389 54.3181ZM35.9038 62.8034L37.318 61.3892L36.6109 60.6821L35.1967 62.0963L35.9038 62.8034ZM45.5 58.0001H47.5V57.0001H45.5V58.0001ZM33.5 58.0001H35.5V57.0001H33.5V58.0001ZM43.6819 61.3891L45.0962 62.8033L45.8033 62.0962L44.389 60.682L43.6819 61.3891ZM35.1967 52.9038L36.6109 54.318L37.318 53.6109L35.9038 52.1967L35.1967 52.9038Z" fill="#000577"/>
<circle cx="40.5" cy="57.5001" r="5" stroke="#000577"/>
<path d="M68 17.5001C68 16.1193 69.1193 15.0001 70.5 15.0001H73.5C74.8807 15.0001 76 16.1193 76 17.5001C76 18.8808 74.8807 20.0001 73.5 20.0001H70.5C69.1193 20.0001 68 18.8808 68 17.5001Z" fill="#89E890"/>
<path d="M68 60.5001C68 59.1193 69.1193 58.0001 70.5 58.0001H73.5C74.8807 58.0001 76 59.1193 76 60.5001C76 61.8808 74.8807 63.0001 73.5 63.0001H70.5C69.1193 63.0001 68 61.8808 68 60.5001Z" fill="#89E890"/>
<path d="M33 30.0001C33 33.3138 30.3137 36.0001 27 36.0001C23.6863 36.0001 21 33.3138 21 30.0001C21 26.6863 23.6863 24.0001 27 24.0001C30.3137 24.0001 33 26.6863 33 30.0001Z" fill="#89E890"/>
<path d="M58 84.0001C58 82.8955 58.8954 82.0001 60 82.0001H73C74.1046 82.0001 75 82.8955 75 84.0001V94.0001C75 95.1046 74.1046 96.0001 73 96.0001H60C58.8954 96.0001 58 95.1046 58 94.0001V84.0001Z" fill="#89E890"/>
<path d="M43.5 57.5001C43.5 59.1569 42.1569 60.5001 40.5 60.5001C38.8431 60.5001 37.5 59.1569 37.5 57.5001C37.5 55.8432 38.8431 54.5001 40.5 54.5001C42.1569 54.5001 43.5 55.8432 43.5 57.5001Z" fill="#89E890"/>
</svg>
